<svg xmlns="http://www.w3.org/2000/svg" viewBox="0 0 32 32" fill="none">
  <rect width="32" height="32" rx="7" fill="#0d1117"/>
  <g>
    <rect x="4" y="4" width="4" height="4" rx="1" fill="#0e4429"/>
    <rect x="9" y="4" width="4" height="4" rx="1" fill="#006d32"/>
    <rect x="14" y="4" width="4" height="4" rx="1" fill="#26a641"/>
    <rect x="19" y="4" width="4" height="4" rx="1" fill="#39d353"/>
    <rect x="24" y="4" width="4" height="4" rx="1" fill="#39d353"/>
    <rect x="4" y="9" width="4" height="4" rx="1" fill="#006d32"/>
    <rect x="9" y="9" width="4" height="4" rx="1" fill="#26a641"/>
    <rect x="14" y="9" width="4" height="4" rx="1" fill="#39d353"/>
    <rect x="19" y="9" width="4" height="4" rx="1" fill="#39d353"/>
    <rect x="24" y="9" width="4" height="4" rx="1" fill="#39d353"/>
    <rect x="4" y="14" width="4" height="4" rx="1" fill="#26a641"/>
    <rect x="9" y="14" width="4" height="4" rx="1" fill="#39d353"/>
    <rect x="14" y="14" width="4" height="4" rx="1" fill="#39d353"/>
    <rect x="19" y="14" width="4" height="4" rx="1" fill="#39d353"/>
    <rect x="24" y="14" width="4" height="4" rx="1" fill="#26a641"/>
    <rect x="4" y="19" width="4" height="4" rx="1" fill="#39d353"/>
    <rect x="9" y="19" width="4" height="4" rx="1" fill="#39d353"/>
    <rect x="14" y="19" width="4" height="4" rx="1" fill="#39d353"/>
    <rect x="19" y="19" width="4" height="4" rx="1" fill="#26a641"/>
    <rect x="24" y="19" width="4" height="4" rx="1" fill="#006d32"/>
    <rect x="4" y="24" width="4" height="4" rx="1" fill="#39d353"/>
    <rect x="9" y="24" width="4" height="4" rx="1" fill="#39d353"/>
    <rect x="14" y="24" width="4" height="4" rx="1" fill="#26a641"/>
    <rect x="19" y="24" width="4" height="4" rx="1" fill="#006d32"/>
    <rect x="24" y="24" width="4" height="4" rx="1" fill="#0e4429"/>
  </g>
</svg>
